<svg xmlns="http://www.w3.org/2000/svg" viewBox="0 0 100 100" role="img" aria-label="शोषितका शब्दहरू — pen and leaves logo">
  <defs>
    <linearGradient id="nibGrad" x1="0" y1="0" x2="1" y2="0">
      <stop offset="0%"   stop-color="#9a9a9a"/>
      <stop offset="32%"  stop-color="#e2e2e2"/>
      <stop offset="50%"  stop-color="#efefef"/>
      <stop offset="68%"  stop-color="#e2e2e2"/>
      <stop offset="100%" stop-color="#9a9a9a"/>
    </linearGradient>
    <linearGradient id="collarGrad" x1="0" y1="0" x2="1" y2="0">
      <stop offset="0%"   stop-color="#6a6a6a"/>
      <stop offset="40%"  stop-color="#b8b8b8"/>
      <stop offset="60%"  stop-color="#b8b8b8"/>
      <stop offset="100%" stop-color="#6a6a6a"/>
    </linearGradient>
    <linearGradient id="barrelGrad" x1="0" y1="0" x2="1" y2="0">
      <stop offset="0%"   stop-color="#080808"/>
      <stop offset="20%"  stop-color="#242424"/>
      <stop offset="50%"  stop-color="#343434"/>
      <stop offset="80%"  stop-color="#242424"/>
      <stop offset="100%" stop-color="#080808"/>
    </linearGradient>
  </defs>

  <!-- Badge background — ensures visibility in dark mode -->
  <rect x="2" y="2" width="96" height="96" rx="9" fill="#f7f2e6" stroke="#c8973f" stroke-width="2.5"/>

  <!-- Left leaf -->
  <path d="M50,35 C37,27 20,15 13,4 C27,11 45,23 50,35 Z"
        fill="#3b7a30" stroke="#285220" stroke-width="0.6"/>
  <!-- Left leaf midrib -->
  <path d="M50,35 C37,27 20,15 13,4"
        stroke="#1e4018" stroke-width="1.1" fill="none" stroke-linecap="round"/>
  <!-- Left lateral veins -->
  <g stroke="#1e4018" stroke-width="0.55" fill="none" opacity="0.65">
    <path d="M41,29 L31,23"/>
    <path d="M33,22 L25,17"/>
    <path d="M26,17 L20,12"/>
  </g>

  <!-- Right leaf -->
  <path d="M50,35 C63,27 80,15 87,4 C73,11 55,23 50,35 Z"
        fill="#3b7a30" stroke="#285220" stroke-width="0.6"/>
  <!-- Right leaf midrib -->
  <path d="M50,35 C63,27 80,15 87,4"
        stroke="#1e4018" stroke-width="1.1" fill="none" stroke-linecap="round"/>
  <!-- Right lateral veins -->
  <g stroke="#1e4018" stroke-width="0.55" fill="none" opacity="0.65">
    <path d="M59,29 L69,23"/>
    <path d="M67,22 L75,17"/>
    <path d="M74,17 L80,12"/>
  </g>

  <!-- Pen nib body -->
  <path d="M50,35 L29,73 L71,73 Z" fill="url(#nibGrad)"/>
  <!-- Nib centre slit -->
  <line x1="50" y1="36" x2="50" y2="73"
        stroke="#606060" stroke-width="1.4"/>
  <!-- Breather hole -->
  <circle cx="50" cy="41" r="2" fill="#555"/>

  <!-- Collar -->
  <rect x="29" y="72" width="42" height="6" rx="1.5" fill="url(#collarGrad)"/>

  <!-- Barrel -->
  <rect x="35" y="78" width="30" height="22" rx="4" fill="url(#barrelGrad)"/>
</svg>
